# xmcd
#
# Track frame offsets:
#	150
#	21447
#	46660
#	69450
#	94875
#	120262
#	140585
#	167717
#	190237
#	212937
#
# Disc length: 3156 seconds
#
# Revision: 1
# Processed by: cddbd v1.5.2PL0 Copyright (c) Steve Scherf et al.
# Submitted via: EZCDAudioConverter 8.0.2.1
#
DISCID=8b0c520a
DTITLE=Khánh Hà - st. Trịnh Công Sơn, Vũ Thành An
DYEAR=1993
DGENRE=World Pop
TTITLE0=Ru mãi ngàn năm
TTITLE1=Bài không tên số 8
TTITLE2=Nhìn những mùa thu đi
TTITLE3=Một ngày nào cho tôi gặp lại em
TTITLE4=Diễm xưa
TTITLE5=Lời tình buồn
TTITLE6=Biển nhớ
TTITLE7=Bài không tên cuối cùng
TTITLE8=Hạ trắng
TTITLE9=Bài không tên số 7
EXTD=
EXTT0=
EXTT1=
EXTT2=
EXTT3=
EXTT4=
EXTT5=
EXTT6=
EXTT7=
EXTT8=
EXTT9=
PLAYORDER=
